<svg xmlns="http://www.w3.org/2000/svg" viewBox="0 0 3000 2727" width="3000" height="2727"><g transform="translate(0.0 129.54545454545453) rotate(0.0 1497.2727272727273 1030.9090909090908) scale(1.365879241844967 1.3646417941646038)"><svg width="2192.394" height="1510.886" viewBox="0 0 2192.394 1510.886"><path d="M1418.444 0c-378.311 0-253.529 927.034-579.821 927.034-174.118 0-188.529-187.666-356.538-187.666-229.107 0-280.429 677.261-482.085 771.518h2192.394C1953.16 1342.738 1796.754 0 1418.444 0z" fill="#feecf8"/></svg></g><g transform="translate(1624.090909090909 1588.6363636363635) rotate(0.0 376.36363636363626 376.36363636363626) scale(1.363061013607069 1.363061013607069)"><svg width="552.233" height="552.233" viewBox="0 0 552.233 552.233"><path d="M276.117 552.233c-73.753 0-143.092-28.721-195.244-80.873C28.721 419.209 0 349.87 0 276.117S28.721 133.024 80.873 80.873 202.363 0 276.117 0s143.092 28.721 195.244 80.873 80.873 121.491 80.873 195.244-28.721 143.092-80.873 195.244c-52.152 52.151-121.49 80.873-195.244 80.873zm0-434.233C188.931 118 118 188.931 118 276.117s70.931 158.116 158.117 158.116 158.117-70.931 158.117-158.116S363.303 118 276.117 118z" fill="#4939bb"/></svg></g><g transform="translate(1362.2727272727273 530.4545454545454) rotate(0.0 638.1818181818181 156.13636363636363) scale(1.3635125403821622 1.3607010521962546)"><svg width="936.085" height="229.494" viewBox="0 0 936.085 229.494"><path d="M2.5 2.5h931.085v224.494H2.5z" fill="#fff"/><path d="M933.585 229.494H2.5a2.5 2.5 0 0 1-2.5-2.5V2.5A2.5 2.5 0 0 1 2.5 0h931.085a2.5 2.5 0 0 1 2.5 2.5v224.494a2.5 2.5 0 0 1-2.5 2.5zM5 224.494h926.085V5H5z" fill="#4939bb"/></svg></g><g transform="translate(880.9090909090909 1217.7272727272727) rotate(0.0 655.9090909090908 595.9090909090909) scale(1.3625500061989884 1.3629517688691628)"><svg width="962.767" height="874.439" viewBox="0 0 962.767 874.439"><path d="M10.034 848.143a30.029 30.029 0 0 1-1.208-6.537L.323 795.621l49.031-39.276L414.862 105.58c17.81-31.71 66.615-57.418 109.007-57.418h387.89c7.019 0 13.407.719 19.125 2.039l22.979-18.407 8.075 44.318-.006.005c2.059 8.615.371 18.691-5.684 29.464L556.384 817.078c-17.805 31.681-66.585 57.362-108.955 57.362H59.743c-26.959 0-44.809-10.406-49.659-26.13l-.016.013-.033-.179z" fill="#1f201b"/><path d="M51.012 826.276h387.686c42.37 0 91.15-25.681 108.955-57.362L947.517 57.418C965.338 25.707 945.42 0 903.028 0h-387.89c-42.392 0-91.197 25.707-109.007 57.418L6.512 768.915c-17.794 31.681 2.13 57.362 44.5 57.362z" fill="#1f201b"/><path d="M64.285 814.588h374.272c37.837 0 81.399-22.934 97.299-51.226L929.471 62.975c15.914-28.318-1.873-51.275-39.729-51.275H515.279c-37.857 0-81.44 22.957-97.345 51.275L24.547 763.363c-15.891 28.292 1.901 51.226 39.739 51.226z" fill="#fff"/><path d="M622.089 61.096h105.336c11.545 0 24.838-7.001 29.691-15.638 4.853-8.637-.573-15.638-12.118-15.638H639.66c-11.546 0-24.838 7.001-29.69 15.638-4.852 8.636.574 15.638 12.12 15.638z" fill="#1f201b"/><g fill="#4939bb"><path d="M828.206 326.659c-.153 0-.309-.014-.465-.044l-4.432-.834a1.838 1.838 0 0 1-.079-.016c-2.107-.388-4.792-2.294-6.012-8.992-1.527-8.379.071-19.929 3.638-26.294l23.784-42.444c2.565-4.577 5.355-5.011 7.019-4.738.095.007.19.02.286.039l4.954.966a2.5 2.5 0 1 1-.957 4.907l-4.658-.908a2.428 2.428 0 0 1-.449-.073c-.108.043-.872.537-1.833 2.251l-23.784 42.444c-2.971 5.302-4.382 15.813-3.081 22.954.677 3.714 1.781 4.873 2.039 4.98.06.009.118.02.177.032l4.314.812a2.5 2.5 0 0 1-.46 4.957zm-41.453 73.705c-.15 0-.301-.013-.454-.042l-4.442-.814a2.448 2.448 0 0 1-.391-.105c-1.992-.553-4.449-2.589-5.596-8.881-1.524-8.364.066-19.884 3.62-26.227l23.693-42.281c2.479-4.423 5.183-4.947 6.813-4.748.131.004.263.019.396.044l4.954.966a2.5 2.5 0 1 1-.957 4.907l-4.642-.905a2.54 2.54 0 0 1-.383-.054c-.109.042-.866.535-1.818 2.233l-23.693 42.281c-2.958 5.28-4.361 15.76-3.063 22.886.675 3.705 1.776 4.859 2.034 4.965.066.013.131.029.196.047l4.181.766a2.5 2.5 0 0 1-.448 4.96z"/><path d="M787.65 400.541c-.285 0-.556-.025-.81-.068-2.095-.35-4.852-2.196-6.093-9.006-1.524-8.364.066-19.884 3.62-26.227l23.693-42.281c2.502-4.465 5.197-5.04 7.018-4.736 2.096.35 4.856 2.197 6.097 9.01 1.526 8.378-.07 19.918-3.634 26.272l-23.699 42.25c-2.147 3.827-4.438 4.786-6.193 4.786zm.051-4.99h.01zm26.573-72.375c-.26.112-.974.662-1.852 2.227l-23.693 42.281c-2.959 5.28-4.362 15.76-3.063 22.886.635 3.483 1.645 4.721 1.979 4.949.26-.113.968-.661 1.837-2.21l23.699-42.25c2.968-5.291 4.376-15.792 3.076-22.93-.636-3.492-1.65-4.728-1.983-4.953zm14.73 3.622c-.286 0-.557-.025-.812-.068-2.097-.35-4.857-2.198-6.099-9.012-1.527-8.379.071-19.929 3.638-26.294l23.784-42.444c2.511-4.481 5.213-5.061 7.04-4.755 2.099.35 4.861 2.198 6.103 9.015 1.529 8.393-.075 19.962-3.652 26.339l-23.79 42.413c-2.156 3.843-4.453 4.805-6.213 4.805zm.048-4.99h.01zm26.698-72.63c-.26.108-.983.659-1.873 2.247l-23.784 42.444c-2.971 5.302-4.382 15.813-3.081 22.953.637 3.499 1.654 4.733 1.986 4.955.26-.11.976-.66 1.858-2.231l23.79-42.413c2.98-5.313 4.397-15.845 3.094-22.997-.639-3.508-1.658-4.74-1.99-4.959zM280.766 867.091h-60.012c-7.236 0-13.935-5.654-15.25-12.871-.668-3.666.173-7.133 2.366-9.763 2.155-2.582 5.33-4.004 8.941-4.004h60.012c7.236 0 13.935 5.653 15.25 12.871.668 3.666-.173 7.133-2.367 9.763-2.155 2.583-5.33 4.005-8.941 4.005zm-63.954-21.638c-2.102 0-3.914.784-5.101 2.208-1.227 1.471-1.684 3.482-1.287 5.663.866 4.752 5.597 8.768 10.331 8.768h60.012c2.102 0 3.914-.784 5.101-2.208 1.227-1.471 1.684-3.482 1.287-5.663-.866-4.752-5.597-8.767-10.331-8.767h-60.012zm199.132 8.321c.463 2.5 2.865 4.527 5.366 4.527s4.156-2.026 3.695-4.527c-.461-2.502-2.863-4.531-5.367-4.531-2.503 0-4.157 2.029-3.695 4.531zm-27.413 0c.469 2.5 2.877 4.527 5.378 4.527s4.15-2.026 3.683-4.527c-.467-2.502-2.876-4.531-5.379-4.531s-4.152 2.029-3.682 4.531zm-26.004 0c.476 2.5 2.889 4.527 5.39 4.527s4.145-2.026 3.671-4.527c-.474-2.502-2.887-4.531-5.39-4.531s-4.147 2.029-3.671 4.531zm-26.004 0c.482 2.5 2.9 4.527 5.401 4.527s4.14-2.026 3.66-4.527-2.899-4.531-5.402-4.531-4.141 2.029-3.659 4.531zm-186.579 0c.463 2.5 2.865 4.527 5.366 4.527s4.156-2.026 3.695-4.527c-.461-2.502-2.863-4.531-5.367-4.531-2.503 0-4.157 2.029-3.695 4.531zm-27.413 0c.469 2.5 2.877 4.527 5.378 4.527s4.15-2.026 3.683-4.527c-.467-2.502-2.876-4.531-5.379-4.531s-4.152 2.029-3.682 4.531zm-26.004 0c.476 2.5 2.889 4.527 5.39 4.527s4.145-2.026 3.671-4.527c-.474-2.502-2.887-4.531-5.39-4.531s-4.147 2.029-3.671 4.531zm-26.004 0c.482 2.5 2.9 4.527 5.401 4.527s4.14-2.026 3.66-4.527-2.899-4.531-5.402-4.531-4.141 2.029-3.659 4.531z"/></g></svg></g><g transform="translate(794.9999999999999 1022.7272727272726) rotate(0.0 625.909090909091 257.7272727272727) scale(1.3630290881493778 1.3617090769797915)"><svg width="918.409" height="378.535" viewBox="0 0 918.409 378.535"><path d="M2.327 368.515a11.24 11.24 0 0 1-.208-1.03l-1.871-9.298 4.957-1.883L193.59 32.082c6.645-11.436 24.566-20.726 40.035-20.757L899.528 10c4.633-.009 8.537.809 11.577 2.259l5.041-1.914 1.761 9.12-.006.002c1.031 3.241.525 7.104-1.804 11.258L733.026 357.34c-6.559 11.702-24.632 21.194-40.361 21.194H20.554c-10.151 0-16.724-4-18.222-10.001h-.001l-.004-.02z" fill="#4939bb"/><path d="M18.554 368.535h672.11c15.729 0 33.802-9.492 40.361-21.194L914.097 20.725C920.532 9.245 913.111-.031 897.528 0L231.624 1.325c-15.469.031-33.39 9.321-40.035 20.757L2.554 347.424c-6.773 11.656.388 21.111 16 21.111z" fill="#4939bb"/><g fill="#feecf8"><path d="m747.387 175.217 34.404-.037-9.602 17.091a2.472 2.472 0 0 0-1.219-.33h-.002l-33.011.031 9.431-16.755zm35.809-5.038h-.002l-32.991.035 10.036-17.83c.219-.39.312-.812.311-1.23l28.128-.033c3.664-.004 5.4 2.189 3.877 4.9l-8.139 14.488a2.472 2.472 0 0 0-1.219-.33zm-52.02 42.45c-1.524-2.604-1.413-6.102.291-9.128l3.673-6.526 34.424-.032-7.711 13.725c-1.528 2.719-5.742 4.927-9.412 4.93l-17.676.015a6.766 6.766 0 0 1-3.589-2.984zm-20.808-58.44c1.517 2.595 1.404 6.079-.296 9.093l-3.936 6.979-34.366.036 7.992-14.146c1.531-2.709 5.738-4.908 9.398-4.913l17.635-.021a6.74 6.74 0 0 1 3.573 2.971zm-16.5 37.825-34.387.032 9.651-17.081a2.47 2.47 0 0 0 1.224.333h.003l32.956-.035-9.446 16.751z"/><path d="m727.163 215.619-40.885.034 28.148-49.914c2.57-4.558 2.669-9.95.257-14.074-.092-.158-.197-.304-.295-.456l40.801-.048-28.08 49.887c-2.572 4.569-2.667 9.975-.249 14.106.094.161.202.309.303.465zm-78.258-4.854 7.938-14.05a2.47 2.47 0 0 0 1.224.333h.002l32.977-.031-9.818 17.41c-.22.39-.313.813-.312 1.23l-28.155.023c-3.666.003-5.393-2.198-3.857-4.916zM340.19 80.802l-15.346.024 4.37-48.107 15.323-.028zm-28.403.044-15.341.024 4.412-48.099 15.319-.028zm-27.395.043-15.337.024 4.452-48.093 15.314-.027zm64.326-8.128 42.588-40.155-15.331.028-26.121 24.619zm-88.24-39.917-15.31.028-51.257 48.158 15.324-.024zm-.745 8.005-3.726 40.084-15.332.024 2.298-24.597zM367.949 298.08l344.87-.132 7.266-12.934-344.758.156zm236.735 29.922 91.262-.02 7.278-12.956-91.232.027z"/></g></svg></g><g transform="translate(409.09090909090907 696.8181818181818) rotate(0.0 428.18181818181813 948.4090909090909) scale(1.3623781163314712 1.3627624713829678)"><svg width="628.58" height="1391.892" viewBox="0 0 628.58 1391.892"><path d="m336.739 1255.578-19.273-148.089 132.326-6.295 10.072 174.919c-33.713 81.963-146.053 70.218-123.125-20.535z" fill="#feecf8"/><path d="M385.499 1333.689c-6.682 0-13.162-1.002-19.197-2.994-22.731-7.504-43.051-31.21-32.103-75.265l-19.211-147.619a2.5 2.5 0 0 1 2.36-2.819l132.326-6.295a2.495 2.495 0 0 1 2.615 2.353l10.072 174.92c.021.374-.041.748-.184 1.095-15.68 38.121-47.987 56.623-76.677 56.626zm-65.203-223.833 18.922 145.398c.041.312.022.629-.055.935-10.365 41.024 8.033 62.933 28.707 69.757 29.655 9.79 71.13-6.355 89.466-50.262l-9.897-171.877z" fill="#4939bb"/><path d="m89.701 1283.315 12.998-166.067 131.139 18.77-23.092 173.681c-48.564 74.135-160.674 58.418-121.044-26.384z" fill="#feecf8"/><path d="M128.982 1359.601c-10.858 0-20.895-2.313-29.1-6.887-22.44-12.509-27.15-38.675-12.638-70.044l12.962-165.617a2.497 2.497 0 0 1 2.847-2.279l131.139 18.77a2.5 2.5 0 0 1 2.124 2.804l-23.093 173.681c-.05.371-.182.727-.387 1.04-21.405 32.676-55.433 48.532-83.854 48.533zm-23.999-239.5-12.79 163.409a2.486 2.486 0 0 1-.228.863c-13.713 29.344-9.941 52.662 10.351 63.973 7.563 4.216 16.82 6.346 26.846 6.347 26.637.002 58.736-15.024 79.18-45.892l22.691-170.66-126.05-18.041zm-15.282 163.214h.01z" fill="#4939bb"/><path d="M89.701 1283.315c-23.069 39.165-24.785 80.275-24.785 80.275h152.966s6.057-17.621-2.624-70.83c-7.762-47.575-102.488-48.611-125.556-9.446z" fill="#1f201b"/><path d="m129.346 694.253-58.657 512.291c-3.575 37.685 161.419 42.383 165.504 10.067l74.319-556.578z" fill="#4939bb"/><path d="m453.725 666.716 20.803 543.976c0 28.277-170.42 55.596-172.462 15.791l-18.383-575.642 170.043 15.874z" fill="#4939bb"/><path d="M290.219 858.063a2.5 2.5 0 0 1-2.497-2.42l-6.538-204.721a2.501 2.501 0 0 1 2.419-2.579 2.506 2.506 0 0 1 2.579 2.419l6.538 204.721a2.501 2.501 0 0 1-2.419 2.579l-.081.001z" fill="#feecf8"/><rect fill="#ffeef8" height="28.301" rx="13.334" transform="matrix(-1 -0 0 -1 282.796 2755.482)" width="179.633" x="51.582" y="1363.59"/><path d="M316.518 22.079c-6.911-8.73-27.579-23.369-59.478-18.671-21.868 3.221-61.442 21.604-58.378 67.178 2.8 41.651 48.255 67.021 63.191 70.734 19.021 24.883 62.568-10.652 54.665-119.241z" fill="#1f201b"/><path d="M275.706 151.407c-5.743 0-11.075-2.7-15.298-7.882-8.631-2.389-23.345-9.962-36.359-21.473-11.852-10.483-26.309-27.893-27.883-51.299C192.96 23.049 234.344 4.224 256.675.935c32.725-4.82 54.246 10.048 61.803 19.592.311.393.497.87.533 1.37 2.591 35.6-.173 66.818-7.993 90.278-6.595 19.786-16.821 33.579-28.054 37.842-2.456.932-4.892 1.39-7.258 1.39zM269.261 4.992c-3.752 0-7.703.277-11.858.889-20.75 3.056-59.21 20.478-56.248 64.537 2.768 41.176 48.584 65.315 61.3 68.476a2.496 2.496 0 0 1 1.383.908c4.633 6.061 10.796 8.028 17.351 5.54 9.823-3.727 18.966-16.393 25.085-34.748 7.556-22.669 10.253-52.929 7.806-87.549-6.279-7.495-21.664-18.053-44.819-18.053z" fill="#1f201b"/><path d="M316.518 22.079c56.791 60.157 70.267 116.948-1.967 119.439 0 0 .176 39.264.606 65.19 3.578 26.36-52.668-8.135-58.146-24.286l4.842-41.102c17.489 5.734 39.064-22.182 36.421-62.051-11.146 5.418-22.595-.931-23.912-10.461-1.514-10.96 9.216-12.703 13.917-9.938 13.117 12.099 20.681 1.886 16.527-3.898-1.045-1.455-4.061-4.488-5.548-6.216-10.979-12.766 1.532-28.34 17.261-26.678z" fill="#feecf8"/><path d="M307.777 218.808c-16.326.003-48.719-22.568-53.134-35.583a2.496 2.496 0 0 1-.115-1.095l4.842-41.102a2.498 2.498 0 0 1 3.262-2.083c5.818 1.908 11.159-.89 14.616-3.573 10.083-7.827 19.511-26.93 18.7-52.514-5.186 1.563-10.559 1.113-15.167-1.349-4.931-2.634-8.173-7.139-8.895-12.359-.973-7.042 2.463-10.482 4.598-11.906 3.731-2.488 9.347-2.715 13.063-.529.153.09.296.196.427.317 6.106 5.632 10.454 5.699 12.323 4.046 1.33-1.177 1.535-3.175.478-4.647-.55-.766-1.929-2.248-3.146-3.556-.852-.916-1.676-1.803-2.267-2.489-5.118-5.951-6.165-13.332-2.802-19.746 3.981-7.593 12.909-12.034 22.221-11.048a2.501 2.501 0 0 1 1.555.77c38.34 40.612 54.974 76.935 45.639 99.655-5.977 14.547-21.753 22.579-46.912 23.894.046 8.916.229 40.674.591 62.611 1.129 8.751-3.73 11.245-6.74 11.952-.958.225-2.011.333-3.137.333zm-48.213-36.689c4.683 11.632 38.172 34.321 50.206 31.489 1.102-.259 3.683-.866 2.91-6.563a2.425 2.425 0 0 1-.022-.295c-.425-25.645-.604-64.827-.606-65.22a2.5 2.5 0 0 1 2.414-2.51c24.431-.842 39.533-7.875 44.885-20.902 8.379-20.393-8.063-55.353-43.994-93.625-6.865-.394-13.502 3.006-16.368 8.471-2.446 4.666-1.677 9.696 2.165 14.163.556.646 1.333 1.481 2.136 2.343 1.383 1.486 2.812 3.022 3.547 4.045 2.56 3.564 2.033 8.425-1.226 11.309-3.563 3.152-10.359 3.758-18.802-3.91-1.892-.978-5.28-1.023-7.55.492-2.063 1.375-2.876 3.751-2.419 7.061.5 3.616 2.795 6.763 6.297 8.633 4.205 2.245 9.323 2.217 14.046-.078a2.501 2.501 0 0 1 3.587 2.083c2.063 31.126-9.729 51.892-20.455 60.218-5.264 4.086-10.949 5.831-16.304 5.061l-4.446 37.736z" fill="#4939bb"/><path d="M217.911 181.666c-61.708 10.558-95.776 31.731-112.525 41.04-7.838 4.356-14.542 10.476-19.667 17.835C59.431 278.29-.212 376.645 0 444.756c.321 102.821 177.214 164.681 177.214 164.681s77.932-434.142 40.697-427.771z" fill="#1f201b"/><path d="m117.427 340.586-13.021 365.563c85.787 36.021 260.511 38.884 374.503 1.306l-4.441-377.766L359.13 176.48c-115.197 19.869-205.801 77.746-241.702 164.106z" fill="#1f201b"/><path d="m104.407 708.649-.09-.001a2.499 2.499 0 0 1-2.409-2.587l13.021-365.563c.049-1.38 1.201-2.472 2.588-2.409a2.5 2.5 0 0 1 2.409 2.587l-13.021 365.563a2.5 2.5 0 0 1-2.497 2.411z" fill="#4939bb"/><path d="M393.47 578.331s-18.555 26.836-29.455 46.468c-14.46 26.043 10.872 64.06 65.583 63.191 24.128-.383 49.06-1.922 49.06-1.922 21.025-.567 20.038-28.552-.336-28.552l-10.044-54.93-74.809-24.255z" fill="#feecf8"/><path d="M427.802 690.505c-29.146 0-53.132-11.105-64.399-29.906-7.299-12.179-7.873-25.67-1.575-37.014 10.834-19.513 29.398-46.407 29.585-46.676a2.5 2.5 0 0 1 2.827-.956l74.808 24.255a2.499 2.499 0 0 1 1.688 1.928l9.686 52.972c10.442.933 15.989 8.802 16.094 16.581.107 7.895-5.416 16.544-17.792 16.878-.163.012-25.179 1.543-49.088 1.923-.613.01-1.227.014-1.835.014zm-33.327-109.22c-4.073 5.963-19.039 28.093-28.275 44.728-5.408 9.74-4.865 21.41 1.492 32.016 10.573 17.643 33.71 27.918 61.865 27.462 23.791-.378 48.697-1.902 48.946-1.917 9.123-.248 13.091-6.113 13.013-11.817-.076-5.654-4.238-11.74-13.195-11.74a2.5 2.5 0 0 1-2.459-2.05l-9.775-53.462-71.612-23.219z" fill="#4939bb"/><path d="M359.129 176.48c43.065 7.019 74.517 16.284 107.212 28.467a51.37 51.37 0 0 1 15.778 9.364c29.485 25.638 144.712 131.352 144.712 217.653 0 98.963-131.851 223.388-131.851 223.388-18.453 20.426-120.447-60.255-108.191-88.851 15.319-39.83 56.655-99.199 79.192-122.766-34.468-26.665-69.958-56.681-101.966-93.957-101.457-77.724-110.888-137.05-4.885-173.298z" fill="#1f201b"/><g fill="#4939bb"><path d="M389.29 586.976a2.5 2.5 0 0 1-2.248-1.403c-3.941-8.063-4.8-14.812-2.551-20.057 15.323-39.845 55.396-97.224 77.786-121.489-29.305-22.758-66.671-53.622-100.159-92.621a2.5 2.5 0 1 1 3.793-3.257c34.028 39.628 72.171 70.843 101.599 93.609a2.5 2.5 0 0 1 .277 3.705c-21.667 22.657-63.083 81.423-78.665 121.936-1.685 3.935-.861 9.282 2.412 15.979a2.5 2.5 0 0 1-2.244 3.598zm38.393 74.15a2.5 2.5 0 0 1-1.678-4.354l18.652-16.867a2.5 2.5 0 0 1 3.354 3.708l-18.652 16.867a2.488 2.488 0 0 1-1.676.646zm118.685-81.199c-2.183 0-4.28-.611-6.057-1.897-5.337-3.861-5.8-12.365-1.031-18.958 4.769-6.592 12.991-8.814 18.328-4.953 2.687 1.944 4.229 5.059 4.342 8.773.106 3.47-1.07 7.087-3.311 10.184-3.181 4.397-7.898 6.85-12.271 6.85zm-3.037-17.924c-3.099 4.284-3.14 9.769-.089 11.976 3.051 2.206 8.247.452 11.346-3.833 1.597-2.207 2.437-4.729 2.364-7.102-.065-2.129-.873-3.86-2.275-4.874-3.05-2.207-8.247-.452-11.346 3.832zm-15.332 43.317c-2.183 0-4.28-.611-6.057-1.897-5.337-3.861-5.8-12.365-1.031-18.958 2.241-3.097 5.308-5.346 8.637-6.331 3.562-1.054 7.004-.565 9.691 1.379 2.687 1.943 4.229 5.059 4.342 8.773.105 3.47-1.07 7.087-3.311 10.185-3.181 4.397-7.898 6.85-12.271 6.85zm-3.037-17.924c-3.099 4.284-3.14 9.769-.089 11.976 3.051 2.206 8.247.452 11.346-3.833 1.597-2.207 2.437-4.729 2.364-7.102-.065-2.129-.873-3.86-2.275-4.874s-3.299-1.24-5.341-.635c-2.276.674-4.408 2.26-6.005 4.468zm-16.837 45.396c-2.183 0-4.28-.611-6.057-1.897-5.337-3.861-5.8-12.365-1.031-18.958 2.241-3.097 5.308-5.346 8.637-6.331 3.562-1.055 7.004-.565 9.691 1.379 2.687 1.943 4.229 5.059 4.342 8.773.106 3.47-1.07 7.087-3.311 10.184-3.181 4.397-7.898 6.85-12.271 6.85zm-3.037-17.924c-3.099 4.284-3.14 9.769-.089 11.976 3.051 2.206 8.247.452 11.346-3.833 1.597-2.207 2.437-4.729 2.364-7.102-.065-2.129-.873-3.86-2.275-4.874s-3.299-1.24-5.341-.635c-2.276.674-4.408 2.26-6.005 4.468zM359.129 175.48c-2.681-12.255-16.368-19.748-27.414-19.748-18.34 0-30.669 19.576-30.669 19.576-28.608-.824-45.632-.097-67.208 2.004 0 0-7.984-21.364-27.899-13.704s-34.009 40.27-34.085 69.702c-.174 67.404 38.884 106.452 74.043 106.468 53.617.025 77.303-105.952 86.539-126.767 9.208-20.751 11.376-32.552 26.695-37.531z"/></g><path d="M218.941 273.251a2.5 2.5 0 0 1-2.245-1.396c-12.261-24.908-14.144-57.857-4.477-78.347 4.745-10.058 12.022-16.5 21.044-18.629a2.5 2.5 0 1 1 1.148 4.866c-7.595 1.792-13.54 7.141-17.671 15.896-8.924 18.917-7.015 50.732 4.441 74.006a2.5 2.5 0 0 1-2.241 3.605z" fill="#feecf8"/><path d="M211.285 273.956c-3.587 0-6.989-.422-10.097-1.243a2.5 2.5 0 1 1 1.278-4.834c12.328 3.258 36.745-.352 53.484-23.655 5.991-8.34 11.081-17.054 18.125-29.114 6.211-10.634 13.941-23.868 24.859-41.138a2.5 2.5 0 1 1 4.226 2.672c-10.871 17.196-18.576 30.388-24.767 40.988-6.845 11.72-12.252 20.977-18.381 29.509-13.299 18.514-32.814 26.815-48.725 26.815z" fill="#feecf8"/><path d="M530.954 1313.462c-24.85-19.051-42.914-31.605-71.09-37.349 0 0-42.9 33.392-81.863 25.422-34.273-7.01-41.262-45.957-41.262-45.957-27.689 29.671-36.223 66.881-34.793 108.013h313.133c-1.558-25.829-37.389-65.978-84.125-50.129z" fill="#1f201b"/><rect fill="#ffeef8" height="28.301" rx="13.334" transform="matrix(-1 -0 0 -1 917.025 2755.482)" width="340.136" x="288.444" y="1363.59"/><path d="M467.403 1315.085a5.5 5.5 0 0 1-4.788-8.199l17.777-31.582a5.5 5.5 0 0 1 9.586 5.396l-17.777 31.582a5.499 5.499 0 0 1-4.798 2.803zm49.024 24.49a5.5 5.5 0 0 1-4.788-8.199l17.777-31.582a5.5 5.5 0 0 1 9.586 5.396l-17.777 31.582a5.499 5.499 0 0 1-4.798 2.803z" fill="#feecf8"/></svg></g><g transform="translate(2490.0 1206.8181818181818) rotate(0.0 156.1363636363635 297.9545454545454) scale(1.3597234476886473 1.3612596105863008)"><svg width="229.659" height="437.763" viewBox="0 0 229.659 437.763"><path d="m7.842 187.994 162.581 60.707 56.736-34.352-162.582-60.707z" fill="#1f201b"/><path d="M43.419 435.263 0 215.928l56.735-34.352 162.582 60.707z" fill="#1f201b"/><path d="M7.842 187.994 164.904 2.5l62.255 211.849-162.582-60.707z" fill="#1f201b"/><g fill="#feecf8"><path d="M7.844 190.494a2.5 2.5 0 0 1-1.297-4.639l56.257-34.063L162.82 1.117a2.5 2.5 0 1 1 4.166 2.765L66.66 155.024a2.506 2.506 0 0 1-.788.756L9.137 190.132a2.491 2.491 0 0 1-1.292.362z"/><path d="M227.158 216.849c-.291 0-.586-.051-.874-.159L63.702 155.983a2.5 2.5 0 0 1 1.749-4.685l162.582 60.707a2.5 2.5 0 0 1-.875 4.843zM43.421 437.763c-.044 0-.088 0-.133-.003a2.501 2.501 0 0 1-2.366-2.628L53.99 186.16l-21.168 12.817a2.5 2.5 0 0 1-2.59-4.277l25.207-15.262a2.498 2.498 0 0 1 3.791 2.269L45.914 435.394a2.5 2.5 0 0 1-2.495 2.369z"/><path d="M195.63 235.939c-.291 0-.586-.051-.874-.159L55.861 183.917a2.5 2.5 0 0 1 1.749-4.685l138.895 51.863a2.5 2.5 0 0 1-.875 4.843z"/></g></svg></g><g transform="translate(2199.5454545454545 624.5454545454545) rotate(0.0 274.090909090909 38.863636363636374) scale(1.3762450966989057 1.3508389420798184)"><svg width="398.317" height="57.54" viewBox="0 0 398.317 57.54"><g fill="#4939bb"><path d="M264.151 5H2.5a2.5 2.5 0 1 1 0-5h261.651a2.5 2.5 0 1 1 0 5zm131.666 52.54H2.5a2.5 2.5 0 1 1 0-5h393.317a2.5 2.5 0 1 1 0 5z"/></g></svg></g><g transform="translate(1122.2727272727273 1825.9090909090908) rotate(0.0 325.22727272727263 85.90909090909088) scale(1.36608213752619 1.3552574307904446)"><svg width="476.146" height="126.779" viewBox="0 0 476.146 126.779"><path d="M398.289 126.779H10.203c-4.14 0-7.343-1.603-9.017-4.512-1.939-3.369-1.472-8.018 1.281-12.755L57.63 14.585C62.382 6.407 72.593 0 80.875 0h384.913c4.15 0 7.382 1.606 9.102 4.524 1.955 3.317 1.603 7.884-.968 12.528l-52.542 94.926c-4.594 8.299-14.736 14.801-23.091 14.801zM80.875 5c-6.446 0-15.111 5.54-18.922 12.097L6.791 112.023c-1.803 3.103-2.278 6-1.271 7.75.954 1.658 3.073 2.006 4.683 2.006h388.085c6.479 0 15.05-5.597 18.717-12.222l52.542-94.926c1.667-3.011 2.054-5.84 1.035-7.568C469.577 5.358 467.42 5 465.788 5z" fill="#4939bb"/></svg></g><g transform="translate(1013.1818181818181 2015.4545454545453) rotate(0.0 325.2272727272727 85.90909090909088) scale(1.3660821375261902 1.3552574307904446)"><svg width="476.146" height="126.779" viewBox="0 0 476.146 126.779"><path d="M398.289 126.779H10.203c-4.14 0-7.343-1.603-9.017-4.512-1.939-3.369-1.472-8.018 1.281-12.755L57.63 14.585C62.382 6.407 72.593 0 80.875 0h384.913c4.15 0 7.382 1.606 9.102 4.524 1.955 3.317 1.603 7.884-.968 12.528l-52.542 94.926c-4.594 8.299-14.736 14.801-23.091 14.801zM80.875 5c-6.446 0-15.111 5.54-18.922 12.097L6.791 112.023c-1.803 3.103-2.278 6-1.271 7.75.954 1.658 3.073 2.006 4.683 2.006h388.085c6.479 0 15.05-5.597 18.717-12.222l52.542-94.926c1.667-3.011 2.054-5.84 1.035-7.568C469.577 5.358 467.42 5 465.788 5z" fill="#4939bb"/></svg></g><g transform="translate(863.1818181818181 271.3636363636363) rotate(0.0 137.04545454545456 120.68181818181816) scale(1.362247007235949 1.369571172048574)"><svg width="201.205" height="176.233" viewBox="0 0 201.205 176.233"><clipPath id="a"><path d="M170.321 108.885c-9.741-18.056-27.555-36.551-50.978-51.036-23.231-14.366-47.525-22.033-67.928-22.79L27.716 20.345 7.354 52.897c-15.886 25.688 8.498 69.555 54.462 97.979s96.103 30.641 111.988 4.952l20.009-32.357-23.493-14.586z"/></clipPath><path d="M170.321 108.885c-9.741-18.056-27.555-36.551-50.978-51.036-23.231-14.366-47.525-22.033-67.928-22.79L27.716 20.345 7.354 52.897c-15.886 25.688 8.498 69.555 54.462 97.979s96.103 30.641 111.988 4.952l20.009-32.357-23.493-14.586z" fill="#4939bb"/><path d="M133.128 176.235c-1.361 0-2.743-.031-4.148-.093-21.571-.954-45.891-9.172-68.478-23.14s-40.804-32.054-51.294-50.927C-1.539 82.743-2.953 64.811 5.228 51.582l20.368-32.563a2.5 2.5 0 0 1 3.438-.798l23.14 14.367c21.579.949 45.868 9.151 68.483 23.135 22.819 14.111 41.097 32.339 51.544 51.387l22.931 14.237a2.5 2.5 0 0 1 .808 3.439l-20.009 32.357c-7.66 12.387-22.77 19.091-42.803 19.092zM28.514 23.783 9.473 54.223c-15.128 24.464 8.939 66.873 53.657 94.526 21.873 13.526 45.337 21.48 66.069 22.397 20.21.895 35.292-5.013 42.478-16.633l18.696-30.235-21.372-13.27a2.493 2.493 0 0 1-.881-.937c-9.981-18.502-27.772-36.293-50.093-50.096-22.123-13.681-45.813-21.642-66.705-22.418a2.5 2.5 0 0 1-1.226-.374l-21.582-13.4z" fill="#4939bb"/><g clip-path="url(#a)" fill="#feecf8"><path d="M29.712 127.91a2.5 2.5 0 0 1-2.117-3.826l20.362-32.552a2.5 2.5 0 0 1 4.239 2.651l-20.362 32.552a2.5 2.5 0 0 1-2.122 1.175zM3.32 82.538a2.5 2.5 0 0 1-2.117-3.826L21.565 46.16a2.5 2.5 0 0 1 4.239 2.651L5.442 81.364a2.5 2.5 0 0 1-2.122 1.175zm103.99 90.685a2.5 2.5 0 0 1-2.117-3.826l20.362-32.552a2.5 2.5 0 0 1 4.239 2.651l-20.362 32.552a2.5 2.5 0 0 1-2.122 1.175z"/></g><ellipse cx="110.765" cy="71.908" fill="#fff" rx="54.688" ry="97.754" transform="matrix(.52747487 -.84957064 .84957064 .52747487 -8.752 128.08)"/><g fill="#4939bb"><path d="M153.243 143.818c-1.398 0-2.82-.033-4.266-.099-21.554-.983-45.838-9.231-68.378-23.226S39.896 88.392 29.455 69.51C18.76 50.168 17.389 32.239 25.592 19.026 33.796 5.813 50.471-.91 72.552.097c21.554.983 45.838 9.231 68.378 23.226s40.704 32.101 51.144 50.983c10.695 19.342 12.066 37.271 3.863 50.484-7.667 12.348-22.735 19.028-42.694 19.028zM68.276 4.929c-17.451 0-31.468 5.511-38.437 16.735-15.179 24.448 8.774 66.877 53.396 94.582 21.826 13.551 45.254 21.535 65.968 22.479 20.192.92 35.278-4.965 42.484-16.572 7.207-11.607 5.79-27.74-3.99-45.427-10.034-18.147-27.58-35.603-49.406-49.155C114.157 12.585 88.835 4.929 68.276 4.929z"/><path d="m173.587 99.567 4.417-7.113-12.715-7.894 2.208-3.556-6.357-3.947 2.208-3.557-6.357-3.947-12.714-7.894-12.715-7.894-2.208 3.556-6.357-3.947-6.357-3.947 2.208-3.557-12.714-7.894-12.715-7.894-6.357-3.947-2.208 3.556-6.357-3.947-2.208 3.557-12.714-7.894-4.417 7.113 12.714 7.894-4.416 7.113-12.714-7.894-4.417 7.113 12.714 7.894-4.416 7.113 12.714 7.894 12.714 7.894 12.715 7.894 12.714 7.894 12.714 7.894 12.714 7.894 12.715 7.894 4.416-7.113 12.714 7.894 4.417-7.113-12.714-7.894 4.416-7.113 12.714 7.894zm-63.572-39.47-4.416 7.113-4.417 7.113-12.714-7.894-12.714-7.894 4.416-7.113 4.417-7.113 2.208-3.556 6.357 3.947 2.208-3.556 6.357 3.947 6.357 3.947-2.208 3.556 6.357 3.947-2.208 3.557zm38.143 23.682-4.417 7.113-4.416 7.113-12.714-7.894-12.715-7.894 4.417-7.113 4.416-7.113 2.208-3.557 6.357 3.947 2.208-3.557 6.357 3.947 6.357 3.947-2.208 3.556 6.357 3.947-2.208 3.556z"/></g></svg></g><g transform="translate(1255.9090909090908 556.3636363636364) rotate(0.0 19.090909090909122 98.18181818181813) scale(1.3362433744599371 1.3744025166837186)"><svg width="28.574" height="142.872" viewBox="0 0 28.574 142.872"><path d="M0 28.574v114.298h28.574V0H0z" fill="#1f201b"/></svg></g><g transform="translate(1332.2727272727273 556.3636363636364) rotate(0.0 59.318181818181756 98.86363636363632) scale(1.3839502074864798 1.3839469786051333)"><svg width="85.723" height="142.872" viewBox="0 0 85.723 142.872"><path d="M28.574 0H0v85.723h57.149v28.574H0v28.575h85.723V57.149H28.574V28.574h57.149V0H57.149z" fill="#1f201b"/></svg></g><g transform="translate(1489.090909090909 556.3636363636364) rotate(0.0 59.318181818181756 98.86363636363632) scale(1.3839502074864798 1.3839469786051333)"><svg width="85.723" height="142.872" viewBox="0 0 85.723 142.872"><g fill="#1f201b"><path d="M28.574 0H0v28.574h57.149v28.575h28.574V0H57.149zm0 57.149h28.574v28.575H28.574z"/><path d="M28.574 114.297H0v28.575h85.723V85.723H57.149v28.574z"/></g></svg></g><g transform="translate(1714.090909090909 556.3636363636364) rotate(0.0 59.318181818181756 98.86363636363632) scale(1.3839502074864798 1.3839469786051333)"><svg width="85.723" height="142.872" viewBox="0 0 85.723 142.872"><path d="M28.574 0H0v142.872h85.723V0zm28.574 57.149v57.149H28.574V28.574h28.574v28.574z" fill="#1f201b"/></svg></g><g transform="translate(2037.272727272727 556.3636363636364) rotate(0.0 59.318181818181756 98.86363636363632) scale(1.3839502074864798 1.3839469786051333)"><svg width="85.723" height="142.872" viewBox="0 0 85.723 142.872"><path d="M28.574 0H0v142.872h85.723V0zm28.574 57.149v57.149H28.574V28.574h28.574v28.574z" fill="#1f201b"/></svg></g><g transform="translate(1876.3636363636363 556.3636363636364) rotate(0.0 58.636363636363626 98.18181818181813) scale(1.3680427338372112 1.3744025166837186)"><svg width="85.723" height="142.872" viewBox="0 0 85.723 142.872"><path d="M28.574 0H0v85.723h57.149v28.574H0v28.574h85.723V0zm28.575 57.149H28.574V28.575h28.575z" fill="#1f201b"/></svg></g><g transform="translate(1643.181818181818 713.1818181818181) rotate(0.0 19.772727272727252 19.772727272727252) scale(1.383966352119217 1.383966352119217)"><svg width="28.574" height="28.574" viewBox="0 0 28.574 28.574"><path d="M0 0h28.574v28.574H0z" fill="#1f201b"/></svg></g></svg>