<svg xmlns="http://www.w3.org/2000/svg" viewBox="0 0 3000 3000" width="3000" height="3000"><g transform="translate(326.25 1313.75) rotate(0.0 1099.375 718.125) scale(1.2512996728267507 1.2514322309692991)"><svg width="1757.173" height="1147.685" viewBox="0 0 1757.173 1147.685"><linearGradient id="b" gradientUnits="userSpaceOnUse" x1="64.667" x2="229.718" y1="1053.191" y2="795.321"><stop offset="0" stop-color="#5764ff"/><stop offset="1" stop-color="#c180ff"/></linearGradient><linearGradient id="a" gradientUnits="userSpaceOnUse" x1="1733.668" x2="249.145" y1="100.255" y2="1001.987"><stop offset="0" stop-color="#c180ff"/><stop offset=".838" stop-color="#5764ff"/></linearGradient><linearGradient xmlns:xlink="http://www.w3.org/1999/xlink" id="c" x1="1687.243" x2="278.963" xlink:href="#a" y1="-112.818" y2="716.866"/><path d="M17.241 696.952c-73.726 41.925 157.51 500.319 265.323 442.738 96.246-51.404-154.998-505.475-265.323-442.738z" fill="url(#b)"/><path d="M262.493 1147.622c-22.581 0-49.539-15.122-79.311-44.754-33.747-33.588-70.65-85.315-103.91-145.652C18.441 846.865-24.491 717.232 15.759 694.344c18.769-10.673 41.973-7.9 68.965 8.242 45.991 27.505 101.793 94.234 149.269 178.501 46.246 82.084 74.242 163.324 73.062 212.017-.601 24.81-8.365 41.374-23.077 49.232-6.612 3.531-13.795 5.285-21.484 5.285zM17.241 696.952l1.483 2.608c-15.765 8.965-16.965 41.505-3.38 91.626 12.754 47.053 37.969 106.513 69.181 163.134 32.993 59.852 69.533 111.098 102.888 144.296 21.068 20.969 49.333 43.034 74.96 43.035 6.481 0 12.791-1.411 18.776-4.607 12.664-6.763 19.361-21.596 19.906-44.084 1.155-47.675-26.546-127.731-72.292-208.927-46.987-83.398-101.985-149.303-147.121-176.297-24.999-14.951-46.168-17.702-62.92-8.176l-1.483-2.608z" fill="#fff"/><path d="M1712.419 236.522c-34.786-4.329-323.657-10.87-360.214-12.531-31.172-1.417-197.635 44.277-277.475 61.599a687.887 687.887 0 0 0-1.272-7.045c87.538-36.654 244.956-102.024 263.792-106.06 26.264-5.628 174.383-17.424 291.405-34.098 129.99-18.522 153.139-133.094 53.132-135.247-68.169-1.467-317.57 9.069-392.611 12.821-75.04 3.752-240.129 58.156-348.938 97.553-196.981 58.156-540.291 332.054-605.951 390.21L17.241 696.952c117.615-50.544 353.918 369.892 265.323 442.738l274.968-146.329c48.776 1.876 125.693-20.636 181.973-60.032s196.981-91.925 283.277-138.825l247.166-36.848s64.723-9.912 162.635-9.912c133.872 0 154.126-116.165 59.638-119.52-56.154-1.994-158.912-3.711-184.543-3.355-23.665.328-167.281 4.629-229.386 6.341.085-.638.168-1.28.252-1.92 48.518-7.944 208.979-33.967 241.097-35.965 38.789-2.413 177.125-14.199 233.175-21.979 140.301-19.474 161.526-146.851 32.594-138.35-25.647 1.691-218.926-.443-258.685 2.697-38.344 3.028-158.557 23.326-224.614 31.404l241.012-82.046c25.771-8.773 214.755-13.931 309.473-15.593 94.717-1.661 140.886-122.847 59.822-132.936z" fill="url(#a)"/><path d="M282.566 1142.691a3 3 0 0 1-1.907-5.318c25.991-21.371 19.737-71.749 9.913-110.247-12.733-49.9-39.722-110.843-74.046-167.203-32.316-53.064-68.706-98.26-102.467-127.264-26.209-22.517-64.075-46.511-95.633-32.95a3 3 0 0 1-2.746-5.318l316.818-193.09c31.127-27.539 133.67-111.097 253.799-195.14 102.953-72.026 247.748-164.399 353.006-195.499 77.359-28.008 266.088-93.515 349.723-97.697 62.993-3.15 321.338-14.362 392.826-12.824 45.849.987 63.584 24.637 64.895 46.442 1.157 19.257-9.278 40.134-28.629 57.28-15.221 13.486-43.024 30.938-89.039 37.494-64.995 9.261-138.477 16.904-197.521 23.046-45.896 4.774-82.147 8.545-93.679 11.016-13.425 2.877-108.513 41.113-261.032 104.961l.292 1.614c26.592-5.845 61.735-14.512 98.859-23.667 76.333-18.824 155.274-38.29 176.344-37.332 11.12.505 45.665 1.464 89.4 2.678 98.25 2.726 246.726 6.846 271.049 9.873 29.182 3.632 45.742 22.004 44.298 49.145-2.214 41.632-45.65 88.737-104.438 89.768-103.078 1.808-284.062 7.094-308.559 15.433l-212.285 72.267c24.503-3.403 52.474-7.604 79.8-11.708 48.2-7.239 93.727-14.077 114.884-15.747 23.056-1.821 96.175-1.876 160.687-1.925 46.836-.035 87.285-.066 98.037-.775 61.368-4.046 86.025 21.669 88.623 47.085 3.989 39.011-40.034 86.046-120.607 97.23-55.405 7.69-194.044 19.553-233.401 22.002-26.925 1.675-145.148 20.423-210.621 31.019 14.229-.406 30.075-.862 46.457-1.334 63.658-1.833 135.809-3.911 151.974-4.135 25.613-.354 129.136 1.384 184.69 3.357 19.206.682 35.116 6.031 46.01 15.469 10.108 8.758 15.546 20.844 15.312 34.034-.654 36.85-43.307 76.015-121.066 76.015-96.525 0-161.536 9.779-162.181 9.878l-246.654 36.772c-37.259 20.213-84.734 41.547-130.654 62.184-61.763 27.756-120.101 53.972-151.869 76.21-57.724 40.406-131.778 60.676-178.152 60.678-1.651 0-3.264-.026-4.843-.077l-274.258 145.951c-.447.238-.93.352-1.407.352zM38.374 689.692c59.623 0 133.795 85.861 183.276 167.11 34.621 56.848 61.861 118.388 74.735 168.841 12.012 47.075 11.462 82.547-1.408 104.044l261.146-138.973a3.02 3.02 0 0 1 1.525-.35c44.822 1.726 121.088-18.158 180.137-59.492 32.232-22.563 90.821-48.892 152.85-76.767 46.009-20.676 93.585-42.056 130.715-62.236a2.99 2.99 0 0 1 .99-.331l247.166-36.848c.638-.098 66.06-9.945 163.078-9.945 44.313 0 71.406-12.713 86.331-23.378 17.963-12.836 28.437-29.873 28.736-46.744.446-25.151-21.353-42.186-55.536-43.4-55.487-1.971-158.846-3.708-184.395-3.354-16.12.223-88.248 2.301-151.884 4.133-29.742.857-57.719 1.662-77.46 2.207a3 3 0 0 1-3.056-3.395l.251-1.914a3 3 0 0 1 2.49-2.57c48.482-7.938 209.174-33.994 241.395-35.998 39.291-2.444 177.671-14.284 232.948-21.957 46.288-6.425 73.945-23.602 88.995-36.882 18.635-16.443 28.283-36.05 26.469-53.795-2.313-22.633-25.137-45.475-82.26-41.708-10.947.722-51.486.752-98.427.788-64.401.049-137.396.104-160.219 1.906-20.946 1.654-66.372 8.476-114.465 15.699-39.423 5.921-80.189 12.044-110.021 15.692a3 3 0 0 1-1.331-5.818l241.012-82.046c31.026-10.562 281.885-15.252 310.387-15.752 55.494-.973 96.478-45.097 98.552-84.088 1.276-23.998-12.956-39.625-39.048-42.872-24.036-2.992-172.339-7.107-270.474-9.83-43.765-1.215-78.333-2.174-89.506-2.682-20.17-.918-102.25 19.313-174.635 37.163-38.602 9.52-75.062 18.511-102.068 24.37a3 3 0 0 1-3.591-2.414 710.222 710.222 0 0 0-1.266-7.015 3 3 0 0 1 1.791-3.315c90.584-37.93 245.378-102.167 264.322-106.227 11.847-2.539 48.24-6.324 94.315-11.117 58.993-6.136 132.412-13.773 197.295-23.018 73.137-10.421 114.646-53.168 112.525-88.474-.681-11.341-5.955-21.08-15.25-28.163-10.333-7.875-25.474-12.246-43.785-12.64-65.869-1.417-310.524 8.724-392.397 12.818-82.854 4.143-271.014 69.479-348.066 97.377a3.45 3.45 0 0 1-.172.056c-201.814 59.583-549.274 340.388-604.812 389.578a2.936 2.936 0 0 1-.428.316L34.741 689.8a60.873 60.873 0 0 1 3.633-.108z" fill="#fff"/><path d="M483.258 837.192C650.032 783.485 685.872 582.79 685.872 582.79s246.252-115.752 326.764-156.575c120.044-60.867 148.692-203.413 26.83-182.549-134.384 23.009-166.725 26.432-214.779 29.259s-324.948 70.55-360.415 87.642c-62.205 29.976-138.524 120.009-189.405 179.369-93.303 132.188 29.225 330.259 208.391 297.255z" fill="url(#c)"/><path d="M483.258 840.193a3 3 0 0 1-.919-5.856c85.121-27.412 135.094-94.373 162.027-145.72 29.292-55.844 38.464-105.856 38.554-106.354a2.998 2.998 0 0 1 1.677-2.187c2.462-1.157 247.132-116.2 326.683-156.536 76-38.535 114.288-109.763 101.116-149.588-8.019-24.246-33.74-33.951-72.423-27.328-134.688 23.061-167.479 26.495-215.109 29.297-21.547 1.267-93.926 16.337-184.393 38.392-88.731 21.631-159.017 41.306-174.896 48.958-60.267 29.042-135.346 116.666-185.027 174.649l-3.402 3.97a3 3 0 0 1-4.555-3.905l3.402-3.969C326 475.653 401.571 387.455 462.972 357.866c36.817-17.742 313.887-85.131 361.542-87.934 47.394-2.788 80.059-6.211 214.448-29.221 21.479-3.678 39.341-2.555 53.09 3.335 12.786 5.478 21.791 15.168 26.043 28.023 7.18 21.709.768 50.904-17.593 80.101-19.564 31.11-50.286 58.357-86.506 76.722-76.515 38.796-305.482 146.566-325.466 155.966-1.797 8.921-11.978 55.266-38.764 106.386-17.451 33.306-38.44 62.133-62.385 85.68-29.989 29.491-64.711 50.729-103.2 63.124a3.014 3.014 0 0 1-.92.145z" fill="#fff"/></svg></g><g transform="translate(1097.5 681.25) rotate(0.0 759.375 842.5) scale(1.254665496884712 1.2540104146123097)"><svg width="1210.482" height="1343.689" viewBox="0 0 1210.482 1343.689"><linearGradient id="d" gradientUnits="userSpaceOnUse" x1="-12.206" x2="1292.844" y1="1015.339" y2="637.469"><stop offset="0" stop-color="#2b3656"/><stop offset=".339" stop-color="#757d97"/><stop offset=".424" stop-color="#e2e8f7"/><stop offset=".509" stop-color="#757d97"/><stop offset=".702" stop-color="#757d97"/><stop offset=".879" stop-color="#bfc4d8"/><stop offset=".963" stop-color="#757d97"/></linearGradient><linearGradient id="e" gradientUnits="userSpaceOnUse" x1="551.105" x2="653.943" y1="63.412" y2="1255.469"><stop offset="0" stop-color="#fff"/><stop offset="1" stop-color="#bfc4d8"/></linearGradient><linearGradient id="f" gradientUnits="userSpaceOnUse" x1="549.464" x2="655.432" y1="48.035" y2="1276.381"><stop offset="0" stop-color="#bfc4d8"/><stop offset=".771" stop-color="#2b3656"/></linearGradient><path d="M15.96 1148.69c7.231 23.755 26.518 42.85 55.146 50.543l523.377 140.657c55.129 14.816 119.339-15.039 142.661-66.275L1203.95 248.051c6.751-14.832 8.088-29.664 4.846-43.16l-13.813-56.66c4.482 14.478 3.576 30.704-3.81 46.931L724.366 1220.726c-23.321 51.236-87.532 81.091-142.661 66.275L58.328 1146.344c-29.754-7.996-49.419-28.309-55.943-53.369z" fill="url(#d)"/><path d="M974.993 715.915c.709 5.955 4.629 3.414 8.766-5.694l44.739-98.501c4.13-9.094 6.909-21.301 6.2-27.256s-4.636-3.399-8.766 5.695l-44.739 98.501c-4.137 9.108-6.908 21.3-6.199 27.255m72.887-160.474c.709 5.955 4.636 3.4 8.773-5.71l44.739-98.5c4.131-9.094 6.909-21.301 6.2-27.256s-4.636-3.4-8.766 5.695l-44.739 98.5c-4.137 9.109-6.915 21.315-6.206 27.27" fill="#757d97"/><g fill="#2b3656"><path d="m353.015 1242.033-63.589-17.039c-8.461-2.267-14.759-.272-14.047 4.449.712 4.722 8.168 10.403 16.63 12.67l63.589 17.039c8.461 2.267 14.759.272 14.047-4.45-.712-4.721-8.168-10.401-16.629-12.669m-191.986-49.539c-6.491-1.739-11.341-.226-10.792 3.418.55 3.644 6.284 7.994 12.776 9.734 6.529 1.749 11.379.235 10.829-3.409s-6.284-7.993-12.813-9.742m-34.963-9.369c-6.529-1.749-11.341-.226-10.792 3.418.55 3.644 6.247 7.984 12.776 9.734 6.529 1.749 11.379.235 10.829-3.409s-6.284-7.993-12.813-9.742m-34.963-9.369c-6.529-1.749-11.341-.226-10.792 3.418.55 3.644 6.247 7.984 12.776 9.734 6.529 1.749 11.341.225 10.791-3.419s-6.246-7.983-12.775-9.732m139.851 37.472c-6.491-1.739-11.341-.226-10.792 3.418.55 3.644 6.284 7.994 12.776 9.734 6.529 1.749 11.379.235 10.829-3.409s-6.284-7.993-12.813-9.742m-34.962-9.37c-6.529-1.749-11.341-.226-10.792 3.418.55 3.644 6.247 7.984 12.776 9.734 6.529 1.749 11.379.235 10.829-3.409s-6.284-7.993-12.813-9.742m283.578 75.984c-6.529-1.749-11.379-.236-10.829 3.408s6.284 7.994 12.813 9.744c6.491 1.739 11.341.225 10.791-3.419s-6.284-7.993-12.775-9.732m34.962 9.367c-6.529-1.749-11.379-.236-10.829 3.408s6.284 7.994 12.813 9.744c6.529 1.749 11.341.225 10.791-3.419s-6.246-7.983-12.775-9.732m34.963 9.367c-6.529-1.749-11.341-.226-10.792 3.418.55 3.644 6.247 7.984 12.776 9.734s11.341.225 10.791-3.419-6.246-7.983-12.775-9.732m-104.888-28.105c-6.529-1.749-11.379-.236-10.829 3.408s6.284 7.994 12.813 9.744c6.491 1.739 11.341.225 10.791-3.419s-6.284-7.993-12.775-9.732m-35.001-9.38c-6.491-1.739-11.341-.226-10.792 3.418.55 3.644 6.284 7.994 12.776 9.734 6.529 1.749 11.379.235 10.829-3.409s-6.284-7.993-12.813-9.742"/></g><path d="M591.288 1266.332 68.42 1126.494c-40.202-10.752-56.797-50.239-37.338-88.044l501.98-975.252c16.564-32.18 60.625-52.097 98.64-44.611l493.075 97.091c40.319 7.939 60.716 41.572 45.32 75.257L702.098 1214.872c-18.196 39.812-67.936 62.927-110.81 51.461z" fill="url(#e)"/><path d="M1132.744 98.492 640.137 1.996C591.412-7.548 534.754 18.05 513.464 59.269l-502.963 973.77c-25.046 48.491-3.792 99.432 47.826 113.305l523.377 140.657c55.129 14.816 119.339-15.039 142.661-66.275l466.808-1025.564c19.696-43.272-6.691-86.536-58.429-96.67zm37.352 92.443L702.098 1214.872c-18.196 39.812-67.937 62.927-110.81 51.46L68.419 1126.494c-40.201-10.751-56.797-50.239-37.338-88.044l501.98-975.251c16.564-32.181 60.625-52.097 98.64-44.611l493.075 97.091c40.319 7.939 60.716 41.572 45.319 75.257z" fill="url(#f)"/><path d="M941.44 101.003 790.016 71.008c-14.205-2.814-30.491 4.57-36.407 16.51-5.927 11.964.786 23.994 15.026 26.852l151.791 30.47c14.504 2.912 30.982-4.584 36.772-16.724 5.779-12.116-1.29-24.247-15.759-27.113z" fill="#bfc4d8"/></svg></g><g transform="translate(267.5 433.75) rotate(0.0 688.75 545.0) scale(1.250584438281048 1.2513130176733613)"><svg width="1101.485" height="871.085" viewBox="0 0 1101.485 871.085"><linearGradient id="g" gradientUnits="userSpaceOnUse" x1="159.876" x2="822.251" y1="271.353" y2="428.671"><stop offset="0" stop-color="#757d97"/><stop offset="1" stop-color="#757d97" stop-opacity="0"/></linearGradient><path d="M385.835 192.891c-10.832-2.233-14.24-13.374-7.642-24.868l86.753-151.128C471.364 5.714 485.261-1.693 496.014.334l592.38 111.656c11.846 2.233 16.517 13.663 10.403 25.547l-73.491 142.85 28.975 50.306z" fill="#c180ff" opacity=".7"/><g fill="#2b3656"><path d="M455.583 141.53c-5.934-1.191-7.853-7.222-4.296-13.466l30.954-54.326c3.521-6.18 11.165-10.256 17.081-9.11 5.922 1.147 7.88 7.093 4.364 13.286l-30.909 54.441c-3.552 6.257-11.254 10.367-17.194 9.174zm40.832 26.419c-5.987-1.211-7.95-7.297-4.395-13.589l49.183-87.039c3.499-6.193 11.162-10.28 17.123-9.134 5.967 1.147 7.979 7.104 4.484 13.31l-49.11 87.225c-3.55 6.305-11.293 10.439-17.285 9.227zm45.672 18.866c-6.038-1.226-8.05-7.357-4.501-13.69l58.6-104.582c3.482-6.215 11.169-10.316 17.177-9.165 6.014 1.152 8.078 7.13 4.601 13.358l-58.51 104.806c-3.543 6.346-11.322 10.5-17.366 9.273zm64.938-14.885c-6.083-1.221-8.152-7.353-4.632-13.69l30.633-55.139c3.484-6.272 11.217-10.4 17.281-9.225 6.07 1.176 8.177 7.22 4.699 13.505l-30.584 55.258c-3.515 6.351-11.308 10.513-17.397 9.291zm60.991-7.283c-6.129-1.221-8.255-7.363-4.758-13.713l11.27-20.463c3.482-6.322 11.257-10.474 17.375-9.279 6.125 1.196 8.279 7.297 4.803 13.633l-11.251 20.507c-3.492 6.364-11.303 10.537-17.439 9.315zm36.852 37.582c-6.187-1.247-8.358-7.461-4.858-13.873l40.803-74.745c3.453-6.325 11.24-10.484 17.403-9.295 6.169 1.19 8.383 7.288 4.936 13.627l-40.735 74.907c-3.495 6.426-11.356 10.627-17.549 9.379zm43.593 26.484c-6.244-1.268-8.464-7.538-4.968-14l57.728-106.701c3.43-6.34 11.238-10.511 17.448-9.321 6.217 1.19 8.488 7.302 5.064 13.655L766.104 219.28c-3.49 6.476-11.393 10.702-17.643 9.433zm61.269-5.344c-6.293-1.269-8.571-7.552-5.098-14.03l40.48-75.505c3.425-6.389 11.274-10.583 17.541-9.375 6.273 1.21 8.594 7.377 5.175 13.779l-40.408 75.671c-3.467 6.492-11.391 10.73-17.69 9.46zm44.551 26.829c-6.35-1.289-8.68-7.631-5.212-14.16l57.258-107.792c3.402-6.404 11.271-10.611 17.587-9.401 6.322 1.211 8.701 7.39 5.306 13.808l-57.153 108.03c-3.462 6.543-11.429 10.805-17.785 9.515zm67.249-15.134c-6.398-1.284-8.789-7.626-5.351-14.16l29.91-56.84c3.402-6.464 11.32-10.699 17.696-9.464 6.382 1.236 8.811 7.486 5.416 13.965l-29.854 56.966c-3.432 6.548-11.413 10.819-17.817 9.533zm63.421-7.296c-6.448-1.284-8.9-7.637-5.487-14.185l10.996-21.097c3.397-6.517 11.36-10.778 17.795-9.521 6.442 1.258 8.923 7.568 5.532 14.1l-10.975 21.144c-3.406 6.562-11.407 10.845-17.861 9.559z"/></g><path d="M672.531 476.257c13.19 3.112 27.411-1.739 31.715-10.818l56.177-118.514c4.126-8.704-3.084-18.025-16.058-20.833L214.262 211.341c-11.389-2.465-24.345 1.972-28.977 9.925l-55.87 95.915-48.63 19.476z" fill="url(#g)"/><path d="M625.882 343.067a3.01 3.01 0 0 1-.65-.071l-404.585-89.472a3 3 0 1 1 1.295-5.858l404.585 89.471a3 3 0 0 1-.645 5.931zm53.123 53.417c-.22 0-.441-.024-.664-.075l-279.672-63.214a3 3 0 1 1 1.322-5.852l279.672 63.214a3 3 0 0 1-.658 5.927zM330.581 317.73c-.22 0-.441-.024-.664-.075l-129.303-29.226a3 3 0 1 1 1.322-5.852l129.303 29.226a3 3 0 0 1-.658 5.927zm199.797 86.8c-.224 0-.451-.025-.678-.078l-349.357-80.7a3 3 0 1 1 1.35-5.846l349.357 80.7a3 3 0 0 1-.672 5.924z" fill="#2b3656"/><path d="M639.576 869.469 23.798 717.985C.316 712.208-6.969 690.416 7.27 669.515c14.07-20.653 43.996-32.793 67.09-27.314l604.758 143.471c26.076 6.186 38.819 29.788 28.226 52.954-10.73 23.465-41.181 37.384-67.769 30.843z" fill="#bcc0d4" opacity=".7"/><path d="m632.802 824.329-7.861 27.755 47.7-46.231-68.039 7.724z" fill="#2b3656"/></svg></g><g transform="translate(1351.25 295.0) rotate(15.063778585310821 563.75 542.5) scale(1.2500817680979133 1.2509151280026287)"><svg width="901.941" height="867.365" viewBox="0 0 901.941 867.365"><linearGradient id="h" gradientTransform="matrix(.9643083 -.26478201 .26478201 .9643083 -100.042 157.188)" gradientUnits="userSpaceOnUse" x1="342.433" x2="596.636" y1="833.622" y2="-14.606"><stop offset="0" stop-color="#5764ff" stop-opacity="0"/><stop offset=".967" stop-color="#5764ff"/></linearGradient><path d="M825.014 631.785c-43.784-64.751-226.416-103.599-226.416-103.599s-6.895-120.692-6.384-190.001c31.98-6.451 52.167-39.123 51.76-70.934a90.046 90.046 0 0 0-.203-4.973c17.707-43.418 12.992-97.43-13.122-154.742C589.79 17.869 507.79-21.282 388.633 11.437 296.27 36.799 270.052 124.89 266.506 165.153c-2.832 32.158 2.1 70.158 2.517 81.4 1.051 28.315-10.226 44.404-6.229 75.495 6.825 53.093 30.772 85.885 61.343 142.307 5.187 9.574 12.91 15.812 21.922 19.651-1.514 27.427-2.749 48.374-2.749 48.374s-183.43 52.403-244.546 92.409C46.868 658.759 20.402 786.878 0 867.365h901.941s-20.94-152.782-76.927-235.581z" fill="url(#h)"/><path d="M825.014 631.785c-43.784-64.751-226.416-103.599-226.416-103.599s-6.895-120.692-6.384-190.001c31.98-6.451 52.167-39.123 51.76-70.934a90.046 90.046 0 0 0-.203-4.973c17.707-43.418 12.992-97.43-13.122-154.742C589.79 17.869 507.79-21.282 388.633 11.437 296.27 36.799 270.052 124.89 266.506 165.153c-2.832 32.158 2.1 70.158 2.517 81.4 1.051 28.315-10.226 44.404-6.229 75.495 6.825 53.093 30.772 85.885 61.343 142.307 5.187 9.574 12.91 15.812 21.922 19.651-1.514 27.427-2.749 48.374-2.749 48.374s-183.43 52.403-244.546 92.409C46.868 658.759 20.402 786.878 0 867.365h901.941s-20.94-152.782-76.927-235.581z" fill="url(#h)"/><g fill="#fff"><path d="M375.193 492.283c-10.304 0-20.828-1.47-30.313-5.511a3 3 0 0 1 2.352-5.52c24.918 10.616 61.264 1.914 78.812-4.899 33.733-13.101 130.154-65.894 128.041-94.364a3.002 3.002 0 0 1 2.771-3.214 2.995 2.995 0 0 1 3.214 2.77c1.114 15.024-17.131 34.886-54.229 59.036-31.129 20.263-64.134 36.126-77.625 41.366-3.605 1.399-27.628 10.335-53.022 10.336zm205.456-149.941a65.18 65.18 0 0 1-2.206-.037 2.999 2.999 0 0 1-2.896-3.1 2.978 2.978 0 0 1 3.1-2.897c15.497.536 29.708-5.082 41.075-16.212 13.562-13.28 21.507-33.021 21.253-52.807-.228-17.747-5.359-29.006-14.081-30.891-10.027-2.173-22.948 8.295-30.729 24.879a2.998 2.998 0 0 1-3.99 1.441 2.998 2.998 0 0 1-1.441-3.99c9.102-19.397 24.496-30.989 37.428-28.195 11.689 2.527 18.547 15.896 18.813 36.679.273 21.394-8.345 42.766-23.056 57.17-12.027 11.777-26.947 17.96-43.27 17.96z"/><path d="M580.975 272.71a9.227 9.227 0 0 1-2.548-.362c-8.382-2.402-13.401-17.14-15.347-45.055-3.028-43.46-21.189-78.039-34.586-100.268-19.409-32.205-57.688-53.413-107.784-59.717-44.4-5.589-92.228 1.895-124.811 19.53a2.999 2.999 0 1 1-2.855-5.276c33.627-18.2 82.834-25.945 128.415-20.207 51.959 6.539 91.796 28.761 112.174 62.574 13.717 22.76 32.314 58.195 35.434 102.948 2.41 34.603 9.039 39.138 11.014 39.704 2.565.739 6.558-2.301 10.94-8.34a2.999 2.999 0 1 1 4.855 3.523c-5.324 7.337-10.227 10.946-14.901 10.946z"/></g></svg></g><g transform="translate(633.75 1608.75) rotate(0.0 544.375 378.125) scale(1.2397955291065843 1.2557202728462218)"><svg width="878.169" height="602.244" viewBox="0 0 878.169 602.244"><defs><linearGradient id="i" data-name="Безымянный градиент 546" x1="1444.465" y1="-351.418" x2="36.185" y2="478.266" gradientUnits="userSpaceOnUse"><stop offset="0" stop-color="#c180ff"/><stop offset=".838" stop-color="#5764ff"/></linearGradient></defs><path d="M240.48 598.592C407.254 544.885 443.094 344.19 443.094 344.19s246.252-115.752 326.764-156.575C889.902 126.748 918.55-15.798 796.688 5.066 662.304 28.075 629.963 31.498 581.909 34.325c-48.054 2.827-324.948 70.55-360.415 87.642C159.289 151.943 82.97 241.976 32.089 301.336-61.214 433.524 61.314 631.595 240.48 598.591Z" style="fill:url(#i);stroke-width:0"/><path d="M240.479 601.593a3 3 0 0 1-.918-5.856c85.186-27.433 135.175-94.471 162.11-145.878 29.254-55.831 38.382-105.698 38.471-106.195a3.002 3.002 0 0 1 1.677-2.188c2.462-1.157 247.132-116.2 326.684-156.536 76-38.535 114.288-109.763 101.116-149.587-8.02-24.246-33.743-33.954-72.424-27.328C662.508 31.086 629.716 34.52 582.086 37.321c-21.547 1.268-93.926 16.337-184.393 38.392-88.731 21.632-159.017 41.307-174.896 48.959C162.53 153.714 87.452 241.336 37.771 299.318l-3.404 3.973a2.998 2.998 0 0 1-4.229.325 2.998 2.998 0 0 1-.325-4.229l3.403-3.972c50.007-58.362 125.577-146.56 186.977-176.147 36.818-17.742 313.887-85.132 361.542-87.935 47.395-2.788 80.06-6.211 214.449-29.221 21.477-3.679 39.34-2.556 53.089 3.335 12.786 5.479 21.792 15.168 26.043 28.023 7.181 21.709.768 50.904-17.594 80.101-19.564 31.11-50.286 58.357-86.506 76.722C694.701 229.09 465.734 336.859 445.75 346.26c-1.797 8.921-11.979 55.265-38.764 106.386-17.451 33.306-38.44 62.132-62.385 85.68-29.989 29.491-64.711 50.729-103.2 63.124a2.987 2.987 0 0 1-.921.146Z" style="fill:#fff;stroke-width:0"/></svg></g></svg>